<svg width="655" height="127" viewBox="0 0 655 127" fill="none" xmlns="http://www.w3.org/2000/svg">
<path d="M21.1364 99H0.0454547L32.1818 5.90909H57.5455L89.6364 99H68.5455L45.2273 27.1818H44.5L21.1364 99ZM19.8182 62.4091H69.6364V77.7727H19.8182V62.4091ZM120.523 5.90909V99H100.841V5.90909H120.523ZM179.852 53.0909V68.4545H137.398V53.0909H179.852ZM196.352 99V29.1818H215.716V99H196.352ZM206.08 20.1818C203.201 20.1818 200.731 19.2273 198.67 17.3182C196.64 15.3788 195.625 13.0606 195.625 10.3636C195.625 7.69697 196.64 5.40909 198.67 3.5C200.731 1.5606 203.201 0.590904 206.08 0.590904C208.958 0.590904 211.413 1.5606 213.443 3.5C215.504 5.40909 216.534 7.69697 216.534 10.3636C216.534 13.0606 215.504 15.3788 213.443 17.3182C211.413 19.2273 208.958 20.1818 206.08 20.1818ZM262.682 126.636C256.409 126.636 251.03 125.773 246.545 124.045C242.091 122.348 238.545 120.03 235.909 117.091C233.273 114.152 231.561 110.848 230.773 107.182L248.682 104.773C249.227 106.167 250.091 107.47 251.273 108.682C252.455 109.894 254.015 110.864 255.955 111.591C257.924 112.348 260.318 112.727 263.136 112.727C267.348 112.727 270.818 111.697 273.545 109.636C276.303 107.606 277.682 104.197 277.682 99.4091V86.6364H276.864C276.015 88.5758 274.742 90.4091 273.045 92.1364C271.348 93.8636 269.167 95.2727 266.5 96.3636C263.833 97.4545 260.652 98 256.955 98C251.712 98 246.939 96.7879 242.636 94.3636C238.364 91.9091 234.955 88.1667 232.409 83.1364C229.894 78.0758 228.636 71.6818 228.636 63.9545C228.636 56.0455 229.924 49.4394 232.5 44.1364C235.076 38.8333 238.5 34.8636 242.773 32.2273C247.076 29.5909 251.788 28.2727 256.909 28.2727C260.818 28.2727 264.091 28.9394 266.727 30.2727C269.364 31.5758 271.485 33.2121 273.091 35.1818C274.727 37.1212 275.985 39.0303 276.864 40.9091H277.591V29.1818H296.818V99.6818C296.818 105.621 295.364 110.591 292.455 114.591C289.545 118.591 285.515 121.591 280.364 123.591C275.242 125.621 269.348 126.636 262.682 126.636ZM263.091 83.4545C266.212 83.4545 268.848 82.6818 271 81.1364C273.182 79.5606 274.848 77.3182 276 74.4091C277.182 71.4697 277.773 67.9545 277.773 63.8636C277.773 59.7727 277.197 56.2273 276.045 53.2273C274.894 50.197 273.227 47.8485 271.045 46.1818C268.864 44.5151 266.212 43.6818 263.091 43.6818C259.909 43.6818 257.227 44.5455 255.045 46.2727C252.864 47.9697 251.212 50.3333 250.091 53.3636C248.97 56.3939 248.409 59.8939 248.409 63.8636C248.409 67.8939 248.97 71.3788 250.091 74.3182C251.242 77.2273 252.894 79.4848 255.045 81.0909C257.227 82.6667 259.909 83.4545 263.091 83.4545ZM331.591 58.6364V99H312.227V29.1818H330.682V41.5H331.5C333.045 37.4394 335.636 34.2273 339.273 31.8636C342.909 29.4697 347.318 28.2727 352.5 28.2727C357.348 28.2727 361.576 29.3333 365.182 31.4545C368.788 33.5758 371.591 36.6061 373.591 40.5455C375.591 44.4545 376.591 49.1212 376.591 54.5455V99H357.227V58C357.258 53.7273 356.167 50.3939 353.955 48C351.742 45.5758 348.697 44.3636 344.818 44.3636C342.212 44.3636 339.909 44.9242 337.909 46.0455C335.939 47.1667 334.394 48.803 333.273 50.9545C332.182 53.0758 331.621 55.6364 331.591 58.6364ZM391.852 99V29.1818H411.216V99H391.852ZM401.58 20.1818C398.701 20.1818 396.231 19.2273 394.17 17.3182C392.14 15.3788 391.125 13.0606 391.125 10.3636C391.125 7.69697 392.14 5.40909 394.17 3.5C396.231 1.5606 398.701 0.590904 401.58 0.590904C404.458 0.590904 406.913 1.5606 408.943 3.5C411.004 5.40909 412.034 7.69697 412.034 10.3636C412.034 13.0606 411.004 15.3788 408.943 17.3182C406.913 19.2273 404.458 20.1818 401.58 20.1818ZM463.864 29.1818V43.7273H421.818V29.1818H463.864ZM431.364 12.4545H450.727V77.5455C450.727 79.3333 451 80.7273 451.545 81.7273C452.091 82.697 452.848 83.3788 453.818 83.7727C454.818 84.1667 455.97 84.3636 457.273 84.3636C458.182 84.3636 459.091 84.2879 460 84.1364C460.909 83.9545 461.606 83.8182 462.091 83.7273L465.136 98.1364C464.167 98.4394 462.803 98.7879 461.045 99.1818C459.288 99.6061 457.152 99.8636 454.636 99.9545C449.97 100.136 445.879 99.5152 442.364 98.0909C438.879 96.6667 436.167 94.4545 434.227 91.4545C432.288 88.4545 431.333 84.6667 431.364 80.0909V12.4545ZM476.477 99V29.1818H495.841V99H476.477ZM486.205 20.1818C483.326 20.1818 480.856 19.2273 478.795 17.3182C476.765 15.3788 475.75 13.0606 475.75 10.3636C475.75 7.69697 476.765 5.40909 478.795 3.5C480.856 1.5606 483.326 0.590904 486.205 0.590904C489.083 0.590904 491.538 1.5606 493.568 3.5C495.629 5.40909 496.659 7.69697 496.659 10.3636C496.659 13.0606 495.629 15.3788 493.568 17.3182C491.538 19.2273 489.083 20.1818 486.205 20.1818ZM542.898 100.364C535.837 100.364 529.731 98.8636 524.58 95.8636C519.458 92.8333 515.504 88.6212 512.716 83.2273C509.928 77.803 508.534 71.5152 508.534 64.3636C508.534 57.1515 509.928 50.8485 512.716 45.4545C515.504 40.0303 519.458 35.8182 524.58 32.8182C529.731 29.7879 535.837 28.2727 542.898 28.2727C549.958 28.2727 556.049 29.7879 561.17 32.8182C566.322 35.8182 570.292 40.0303 573.08 45.4545C575.867 50.8485 577.261 57.1515 577.261 64.3636C577.261 71.5152 575.867 77.803 573.08 83.2273C570.292 88.6212 566.322 92.8333 561.17 95.8636C556.049 98.8636 549.958 100.364 542.898 100.364ZM542.989 85.3636C546.201 85.3636 548.883 84.4545 551.034 82.6364C553.186 80.7879 554.807 78.2727 555.898 75.0909C557.019 71.9091 557.58 68.2879 557.58 64.2273C557.58 60.1667 557.019 56.5455 555.898 53.3636C554.807 50.1818 553.186 47.6667 551.034 45.8182C548.883 43.9697 546.201 43.0455 542.989 43.0455C539.746 43.0455 537.019 43.9697 534.807 45.8182C532.625 47.6667 530.973 50.1818 529.852 53.3636C528.761 56.5455 528.216 60.1667 528.216 64.2273C528.216 68.2879 528.761 71.9091 529.852 75.0909C530.973 78.2727 532.625 80.7879 534.807 82.6364C537.019 84.4545 539.746 85.3636 542.989 85.3636ZM609.216 58.6364V99H589.852V29.1818H608.307V41.5H609.125C610.67 37.4394 613.261 34.2273 616.898 31.8636C620.534 29.4697 624.943 28.2727 630.125 28.2727C634.973 28.2727 639.201 29.3333 642.807 31.4545C646.413 33.5758 649.216 36.6061 651.216 40.5455C653.216 44.4545 654.216 49.1212 654.216 54.5455V99H634.852V58C634.883 53.7273 633.792 50.3939 631.58 48C629.367 45.5758 626.322 44.3636 622.443 44.3636C619.837 44.3636 617.534 44.9242 615.534 46.0455C613.564 47.1667 612.019 48.803 610.898 50.9545C609.807 53.0758 609.246 55.6364 609.216 58.6364Z" fill="url(#paint0_linear_204_10115)"/>
<defs>
<linearGradient id="paint0_linear_204_10115" x1="-3" y1="-25" x2="434.658" y2="377.314" gradientUnits="userSpaceOnUse">
<stop stop-color="#C38FFD"/>
<stop offset="1" stop-color="#2667FF"/>
</linearGradient>
</defs>
</svg>
