<svg t="1732271615919" class="icon" viewBox="0 0 1024 1024" version="1.1" xmlns="http://www.w3.org/2000/svg" p-id="1310" width="200" height="200"><path d="M894.008889 344.917333a343.893333 343.893333 0 0 0-189.013333-129.991111v0.085334a366.961778 366.961778 0 0 0-58.026667-52.081778C483.271111 43.918222 253.525333 80.213333 133.973333 243.911111c-96.284444 133.006222-92.16 311.921778 6.001778 439.011556l0.824889 132.608a31.943111 31.943111 0 0 0 41.585778 30.293333l126.577778-39.907556a366.933333 366.933333 0 0 0 102.513777 20.593778l-0.483555 0.426667a347.505778 347.505778 0 0 0 313.002666 48.981333l127.089778 41.415111a31.971556 31.971556 0 0 0 41.898667-30.407111V752.924444a345.884444 345.884444 0 0 0 0.995555-408.007111zM322.958222 734.919111l-12.003555-5.006222-98.986667 31.004444-0.995556-103.992889-8.021333-8.988444c-84.593778-103.224889-90.168889-251.904-10.979555-361.016889 96.398222-132.209778 281.201778-161.393778 413.013333-65.991111 132.181333 96.085333 161.479111 280.604444 65.991111 411.989333a297.329778 297.329778 0 0 1-348.017778 102.001778z m505.002667-17.009778l-7.992889 10.012445 0.995556 103.992889-97.991112-32.995556-12.003555 5.006222a276.195556 276.195556 0 0 1-171.008 6.997334l-0.199111-0.113778a367.303111 367.303111 0 0 0 189.184-134.883556 366.848 366.848 0 0 0 44.401778-350.407111l0.597333 0.398222a270.136889 270.136889 0 0 1 62.008889 62.008889 271.445333 271.445333 0 0 1-7.992889 329.984z" fill="#000000" fill-opacity=".85" p-id="1311"></path><path d="M287.374222 547.384889a32 32 0 1 1 45.226667 45.226667 32 32 0 0 1-45.226667-45.226667zM387.384889 547.384889a32 32 0 1 1 45.226667 45.226667 32 32 0 0 1-45.226667-45.226667zM487.367111 547.384889a32 32 0 1 1 45.255111 45.226667 32 32 0 0 1-45.226666-45.226667zM411.790222 378.510222a9.557333 9.557333 0 0 1-9.784889-9.500444c0-57.400889 50.090667-103.708444 111.502223-102.968889 59.278222 0.768 107.690667 46.08 108.487111 101.546667 0.711111 44.942222-29.696 84.508444-74.296889 98.929777a14.08 14.08 0 0 0-9.699556 13.283556v12.202667a10.040889 10.040889 0 0 1-10.012444 9.984h-32a10.040889 10.040889 0 0 1-9.984-9.984v-32c0.199111-19.797333 15.388444-37.290667 34.702222-40.106667 28.302222-3.697778 49.294222-25.6 49.294222-50.887111 0-28.103111-25.799111-51.484444-57.998222-51.484445-32.199111 0-57.998222 23.381333-57.998222 51.569778 0 5.205333-4.408889 9.386667-9.813334 9.386667h-32.398222z" fill="#000000" fill-opacity=".85" p-id="1312"></path></svg>