<svg t="1732271760979" class="icon" viewBox="0 0 1024 1024" version="1.1" xmlns="http://www.w3.org/2000/svg" p-id="1453" width="200" height="200"><path d="M153.002667 697.002667c0-4.408889 3.584-7.992889 7.992889-7.992889h64c4.408889 0 7.992889 3.584 7.992888 7.964444v48.014222a7.992889 7.992889 0 0 1-7.964444 8.021334H160.995556a7.992889 7.992889 0 0 1-8.021334-8.021334v-47.985777zM404.992 697.002667c0-4.408889 3.584-7.992889 8.021333-7.992889h64c4.408889 0 7.964444 3.584 7.964445 7.964444v48.014222a7.992889 7.992889 0 0 1-7.964445 8.021334h-64a7.992889 7.992889 0 0 1-8.021333-8.021334v-47.985777z" fill="#000000" p-id="1454"></path><path d="M129.991111 224H256v576H129.991111V224z m-55.978667-64a7.992889 7.992889 0 0 0-8.021333 7.992889v688.014222c0 4.408889 3.584 7.992889 8.021333 7.992889h237.994667a7.992889 7.992889 0 0 0 7.992889-7.992889V167.992889a7.992889 7.992889 0 0 0-7.992889-7.992889H74.012444z" fill="#000000" p-id="1455"></path><path d="M382.008889 224h126.008889v576h-126.008889V224z m-56.035556-64a7.992889 7.992889 0 0 0-7.964444 7.992889v688.014222c0 4.408889 3.584 7.992889 7.964444 7.992889h238.023111a7.992889 7.992889 0 0 0 7.992889-7.992889V167.992889a7.992889 7.992889 0 0 0-7.964444-7.992889H325.973333z" fill="#000000" p-id="1456"></path><path d="M164.693333 315.733333a39.992889 39.992889 0 1 1 56.604445 56.547556A39.992889 39.992889 0 0 1 164.693333 315.733333zM416.711111 315.733333a39.992889 39.992889 0 1 1 56.576 56.547556A39.992889 39.992889 0 0 1 416.711111 315.733333z" fill="#000000" fill-opacity=".85" p-id="1457"></path><path d="M745.642667 677.461333a7.992889 7.992889 0 0 1 4.778666-10.24l60.131556-21.902222a7.992889 7.992889 0 0 1 10.24 4.778667l16.440889 45.084444a7.992889 7.992889 0 0 1-4.778667 10.24l-60.131555 21.902222a7.992889 7.992889 0 0 1-10.268445-4.778666l-16.412444-45.084445z" fill="#000000" p-id="1458"></path><path d="M606.037333 361.130667l118.385778-43.093334 153.230222 420.977778-118.414222 43.093333-153.201778-420.977777z m-74.524444-40.988445a7.992889 7.992889 0 0 0-4.778667 10.24l191.544889 526.222222a7.992889 7.992889 0 0 0 10.24 4.807112l223.658667-81.408a7.992889 7.992889 0 0 0 4.778666-10.24l-191.544888-526.222223a7.992889 7.992889 0 0 0-10.24-4.807111l-223.658667 81.408z" fill="#000000" p-id="1459"></path><path d="M653.596444 390.343111a39.992889 39.992889 0 1 1 72.533334 33.792 39.992889 39.992889 0 0 1-72.533334-33.792z" fill="#000000" fill-opacity=".85" p-id="1460"></path></svg>